#N canvas 0 22 450 300 12;
#X obj 37 37 inlet;
#X obj 37 61 t f b;
#X obj 37 85 pack;
#X obj 103 62 random \$1;
#X obj 103 86 + \$2;
#X obj 37 109 outlet;
#X obj 128 36 inlet;
#X connect 0 0 1 0;
#X connect 1 0 2 0;
#X connect 1 1 3 0;
#X connect 2 0 5 0;
#X connect 3 0 4 0;
#X connect 4 0 2 1;
#X connect 6 0 4 1;
