#N canvas 531 58 450 300 12;
#X obj 282 26 fd_windows 0 2051;
#N canvas 65 138 1847 1036 test 0;
#X obj 416 125 phasor~;
#X obj 416 196 tabread4~;
#X floatatom 20 48 5 0 0 0 - - -, f 5;
#X obj 20 175 tabosc4~;
#X obj 20 346 *~;
#X obj 20 403 throw~ dacout-1;
#X obj 30 371 throw~ dacout-2;
#X obj 416 149 *~ 2048;
#X obj 416 173 +~ 1;
#X obj 417 78 / 60;
#X obj 20 223 lop~ 100;
#X floatatom 103 197 5 0 0 0 - - -, f 5;
#X obj 20 247 *~ 20;
#X obj 20 271 clip~ 0 1;
#X floatatom 103 237 5 0 0 0 - - -, f 5;
#X floatatom 497 189 5 0 0 0 - - -, f 5;
#X obj 20 143 *~;
#X obj 251 177 +~ 1;
#X obj 251 155 *~ 1;
#X floatatom 304 130 5 0 0 0 - - -, f 5;
#X floatatom 257 123 5 0 0 0 - - -, f 5;
#X obj 414 47 * 4;
#X obj 1129 123 phasor~;
#X obj 1129 194 tabread4~;
#X obj 733 173 tabosc4~;
#X obj 733 344 *~;
#X obj 1129 218 lop~ 100;
#X obj 733 401 throw~ dacout-1;
#X obj 743 369 throw~ dacout-2;
#X obj 1129 147 *~ 2048;
#X obj 1129 171 +~ 1;
#X obj 1130 76 / 60;
#X floatatom 832 167 5 0 0 0 - - -, f 5;
#X floatatom 832 216 5 0 0 0 - - -, f 5;
#X obj 733 269 clip~ 0 1;
#X floatatom 822 248 5 0 0 0 - - -, f 5;
#X floatatom 819 284 5 0 0 0 - - -, f 5;
#X floatatom 1268 196 5 0 0 0 - - -, f 5;
#X obj 733 141 *~;
#X obj 964 175 +~ 1;
#X obj 964 153 *~ 1;
#X floatatom 1017 128 5 0 0 0 - - -, f 5;
#X floatatom 970 121 5 0 0 0 - - -, f 5;
#X obj 1131 40 * 3;
#X obj 573 549 phasor~;
#X obj 573 620 tabread4~;
#X obj 177 599 tabosc4~;
#X obj 177 770 *~;
#X obj 177 827 throw~ dacout-1;
#X obj 187 795 throw~ dacout-2;
#X obj 573 573 *~ 2048;
#X obj 573 597 +~ 1;
#X obj 574 502 / 60;
#X obj 177 623 hip~ 100;
#X floatatom 276 642 5 0 0 0 - - -, f 5;
#X obj 177 695 clip~ 0 1;
#X floatatom 266 674 5 0 0 0 - - -, f 5;
#X floatatom 712 622 5 0 0 0 - - -, f 5;
#X obj 177 567 *~;
#X obj 408 601 +~ 1;
#X obj 408 579 *~ 1;
#X floatatom 461 554 5 0 0 0 - - -, f 5;
#X floatatom 414 547 5 0 0 0 - - -, f 5;
#X obj 488 129 r sync;
#X obj 1195 120 r sync;
#X obj 635 548 r sync;
#X obj 733 570 phasor~;
#X obj 795 569 r sync;
#X obj 573 668 *~;
#X obj 774 659 tabread4~;
#X obj 774 612 *~ 2048;
#X obj 774 636 +~ 1;
#X obj 732 545 / 60;
#X obj 578 457 * 8;
#X obj 726 456 * 5;
#X obj 569 420 r bpm;
#X obj 723 424 r bpm;
#X obj 416 21 r bpm;
#X floatatom 1681 102 5 0 0 0 - - -, f 5;
#X obj 1129 18 r bpm;
#X msg 1675 150 \; bpm \$1 \; sync 0;
#X obj 601 214 phasor~;
#X obj 596 141 r bpm;
#X obj 597 191 / 60;
#X obj 643 190 r sync;
#X obj 518 244 noise~;
#X obj 518 317 samphold~;
#X obj 614 249 r bpm;
#X obj 614 273 * 4;
#X obj 614 297 / 60;
#X obj 614 321 phasor~;
#X obj 655 290 r sync;
#X obj 544 370 samphold~;
#X obj 518 292 +~ 11;
#X obj 480 359 mtof~;
#X obj 543 341 sig~ 10;
#X obj 518 268 *~ 1;
#X obj 1503 504 phasor~;
#X obj 1503 575 tabread4~;
#X obj 1143 605 tabosc4~;
#X obj 1173 869 *~;
#X obj 1173 926 throw~ dacout-1;
#X obj 1183 894 throw~ dacout-2;
#X obj 1503 528 *~ 2048;
#X obj 1503 552 +~ 1;
#X obj 1504 457 / 60;
#X obj 1164 697 *~ 20;
#X obj 1176 740 clip~ 0 1;
#X floatatom 1211 659 5 0 0 0 - - -, f 5;
#X floatatom 1642 577 5 0 0 0 - - -, f 5;
#X obj 1143 573 *~;
#X obj 1350 627 +~ 1;
#X obj 1350 605 *~ 1;
#X floatatom 1403 580 5 0 0 0 - - -, f 5;
#X floatatom 1356 573 5 0 0 0 - - -, f 5;
#X obj 1569 501 r sync;
#X obj 1507 393 r bpm;
#X obj 1251 333 phasor~;
#X obj 1246 260 r bpm;
#X obj 1247 310 / 60;
#X obj 1293 309 r sync;
#X obj 1168 363 noise~;
#X obj 1168 436 samphold~;
#X obj 1264 368 r bpm;
#X obj 1264 392 * 4;
#X obj 1264 416 / 60;
#X obj 1264 440 phasor~;
#X obj 1305 409 r sync;
#X obj 1194 489 samphold~;
#X obj 1168 411 +~ 11;
#X obj 1130 478 mtof~;
#X obj 1193 460 sig~ 10;
#X obj 1168 387 *~ 1;
#X obj 1496 741 phasor~;
#X obj 1496 812 tabread4~;
#X obj 1496 836 lop~ 100;
#X obj 1496 765 *~ 2048;
#X obj 1496 789 +~ 1;
#X obj 1497 694 / 60;
#X floatatom 1635 814 5 0 0 0 - - -, f 5;
#X obj 1562 738 r sync;
#X obj 1501 644 r bpm;
#X obj 1368 744 *~;
#X obj 1201 801 vcf~ 0.3;
#X obj 1503 666 * 1;
#X obj 1509 415 * 1;
#X obj 1343 712 sig~ 20000;
#X floatatom 1344 663 5 0 0 0 - - -, f 5;
#X obj 1344 686 mtof;
#X floatatom 1308 797 5 0 0 0 - - -, f 5;
#X obj 135 65 g_seltab 0;
#X obj 249 16 tgl 15 0 empty empty empty 17 7 0 10 -262144 -1 -1 1
1;
#X obj 298 272 *~;
#X obj 959 297 *~;
#X obj 899 23 tgl 15 0 empty empty empty 17 7 0 10 -262144 -1 -1 1
1;
#X obj 421 384 tgl 15 0 empty empty empty 17 7 0 10 -262144 -1 -1 1
1;
#X obj 511 811 *~;
#X msg 1644 272 bang;
#X obj 1644 296 crand 0 1;
#X obj 1644 320 s sync;
#X msg 1703 243 \; sync 0;
#X obj 596 165 * 1;
#X obj 1398 387 tgl 15 0 empty empty empty 17 7 0 10 -262144 -1 -1
1 1;
#X obj 1462 895 fd_switch;
#X obj 1464 941 *~;
#X obj 498 771 fd_switch;
#X obj 298 248 fd_switch;
#X obj 959 273 fd_switch;
#X obj 1276 509 g_seltab 0;
#X obj 467 74 g_seltab 0;
#X obj 1180 72 g_seltab 0;
#X obj 848 63 g_seltab 0;
#X obj 624 498 g_seltab 0;
#X obj 292 489 g_seltab 0;
#X obj 863 545 g_seltab 0;
#X obj 1556 445 g_seltab 0;
#X obj 1547 690 g_seltab 0;
#X msg 348 46 1;
#X obj 348 23 loadbang;
#X obj 1547 14 array define voice;
#X obj 1544 109 soundfiler;
#X msg 1544 133 bang;
#X obj 1544 157 t b b;
#X obj 1544 181 tabplay~ voice;
#X obj 1544 205 throw~ dacout-1;
#X obj 1554 215 throw~ dacout-2;
#X msg 1731 119 134;
#X msg 1638 122 0;
#X msg 1434 69 symbol /Applications/Pd-0.48-1.app/Contents/Resources/doc/sound/voice.wav
, f 12;
#X msg 1544 85 read -resize \$1 voice;
#X msg 662 51 10;
#X obj 662 28 loadbang;
#X msg 1032 32 12;
#X obj 1032 9 loadbang;
#X msg 1351 43 7;
#X obj 1351 20 loadbang;
#X msg 1720 420 9;
#X obj 1720 397 loadbang;
#X msg 1731 663 1;
#X obj 1731 640 loadbang;
#X msg 1430 487 13;
#X obj 1430 464 loadbang;
#X msg 1042 521 13;
#X obj 1042 498 loadbang;
#X msg 822 477 10;
#X obj 822 454 loadbang;
#X msg 482 464 13;
#X obj 482 441 loadbang;
#X floatatom 175 454 5 0 0 0 - - -, f 5;
#X obj 175 477 sig~ 70;
#X obj 175 501 mtof~;
#X obj 20 119 mtof~;
#X obj 20 95 sig~ 30;
#X obj 20 199 hip~ 300;
#X obj 733 293 hip~ 25;
#X obj 733 197 hip~ 230;
#X obj 733 221 lop~ 50;
#X obj 733 245 *~ 275;
#X obj 177 647 lop~ 520;
#X obj 177 671 *~ 800;
#X obj 573 644 lop~ 1000;
#X obj 416 220 lop~ 1000;
#X obj 1503 599 lop~ 5;
#X connect 0 0 7 0;
#X connect 1 0 221 0;
#X connect 2 0 212 0;
#X connect 3 0 213 0;
#X connect 4 0 5 0;
#X connect 4 0 6 0;
#X connect 7 0 8 0;
#X connect 8 0 1 0;
#X connect 9 0 0 0;
#X connect 10 0 12 0;
#X connect 11 0 10 1;
#X connect 12 0 13 0;
#X connect 13 0 4 0;
#X connect 14 0 12 1;
#X connect 15 0 221 1;
#X connect 16 0 3 0;
#X connect 17 0 16 1;
#X connect 18 0 17 0;
#X connect 19 0 17 1;
#X connect 20 0 18 1;
#X connect 21 0 9 0;
#X connect 22 0 29 0;
#X connect 23 0 26 0;
#X connect 24 0 215 0;
#X connect 25 0 27 0;
#X connect 25 0 28 0;
#X connect 26 0 40 0;
#X connect 26 0 153 1;
#X connect 29 0 30 0;
#X connect 30 0 23 0;
#X connect 31 0 22 0;
#X connect 32 0 215 1;
#X connect 33 0 216 1;
#X connect 34 0 214 0;
#X connect 35 0 217 1;
#X connect 36 0 214 1;
#X connect 37 0 26 1;
#X connect 38 0 24 0;
#X connect 39 0 38 1;
#X connect 40 0 39 0;
#X connect 41 0 39 1;
#X connect 42 0 40 1;
#X connect 43 0 31 0;
#X connect 44 0 50 0;
#X connect 45 0 220 0;
#X connect 46 0 53 0;
#X connect 47 0 48 0;
#X connect 47 0 49 0;
#X connect 50 0 51 0;
#X connect 51 0 45 0;
#X connect 52 0 44 0;
#X connect 53 0 218 0;
#X connect 54 0 218 1;
#X connect 55 0 47 0;
#X connect 56 0 219 1;
#X connect 57 0 220 1;
#X connect 58 0 46 0;
#X connect 59 0 58 1;
#X connect 60 0 59 0;
#X connect 61 0 59 1;
#X connect 62 0 60 1;
#X connect 63 0 0 1;
#X connect 64 0 22 1;
#X connect 65 0 44 1;
#X connect 66 0 70 0;
#X connect 67 0 66 1;
#X connect 68 0 156 1;
#X connect 69 0 68 1;
#X connect 70 0 71 0;
#X connect 71 0 69 0;
#X connect 72 0 66 0;
#X connect 73 0 52 0;
#X connect 74 0 72 0;
#X connect 75 0 73 0;
#X connect 76 0 74 0;
#X connect 77 0 21 0;
#X connect 78 0 80 0;
#X connect 79 0 43 0;
#X connect 81 0 86 1;
#X connect 82 0 161 0;
#X connect 83 0 81 0;
#X connect 84 0 81 1;
#X connect 85 0 96 0;
#X connect 86 0 94 0;
#X connect 87 0 88 0;
#X connect 88 0 89 0;
#X connect 89 0 90 0;
#X connect 90 0 92 1;
#X connect 91 0 90 1;
#X connect 92 0 94 0;
#X connect 93 0 86 0;
#X connect 94 0 38 0;
#X connect 95 0 92 0;
#X connect 96 0 93 0;
#X connect 97 0 103 0;
#X connect 98 0 222 0;
#X connect 99 0 106 0;
#X connect 100 0 101 0;
#X connect 100 0 102 0;
#X connect 103 0 104 0;
#X connect 104 0 98 0;
#X connect 105 0 97 0;
#X connect 106 0 107 0;
#X connect 107 0 143 0;
#X connect 108 0 106 1;
#X connect 109 0 222 1;
#X connect 110 0 99 0;
#X connect 111 0 110 1;
#X connect 112 0 111 0;
#X connect 113 0 111 1;
#X connect 114 0 112 1;
#X connect 115 0 97 1;
#X connect 116 0 145 0;
#X connect 117 0 122 1;
#X connect 118 0 119 0;
#X connect 119 0 117 0;
#X connect 120 0 117 1;
#X connect 121 0 132 0;
#X connect 122 0 130 0;
#X connect 123 0 124 0;
#X connect 124 0 125 0;
#X connect 125 0 126 0;
#X connect 126 0 128 1;
#X connect 127 0 126 1;
#X connect 128 0 130 0;
#X connect 129 0 122 0;
#X connect 130 0 110 0;
#X connect 131 0 128 0;
#X connect 132 0 129 0;
#X connect 133 0 136 0;
#X connect 134 0 135 0;
#X connect 135 0 164 1;
#X connect 136 0 137 0;
#X connect 137 0 134 0;
#X connect 138 0 133 0;
#X connect 139 0 135 1;
#X connect 140 0 133 1;
#X connect 141 0 144 0;
#X connect 142 0 143 1;
#X connect 143 0 100 0;
#X connect 144 0 138 0;
#X connect 145 0 105 0;
#X connect 146 0 142 0;
#X connect 147 0 148 0;
#X connect 148 0 146 0;
#X connect 149 0 143 2;
#X connect 150 0 3 0;
#X connect 150 1 177 0;
#X connect 151 0 166 0;
#X connect 152 0 4 1;
#X connect 153 0 25 1;
#X connect 154 0 167 0;
#X connect 155 0 165 0;
#X connect 156 0 47 1;
#X connect 157 0 158 0;
#X connect 158 0 159 0;
#X connect 161 0 83 0;
#X connect 162 0 163 0;
#X connect 163 0 164 0;
#X connect 164 0 100 1;
#X connect 165 0 156 0;
#X connect 166 0 152 0;
#X connect 167 0 153 0;
#X connect 168 0 99 0;
#X connect 168 1 200 0;
#X connect 169 0 1 0;
#X connect 169 1 190 0;
#X connect 170 0 23 0;
#X connect 170 1 194 0;
#X connect 171 0 24 0;
#X connect 171 1 192 0;
#X connect 172 0 45 0;
#X connect 172 1 204 0;
#X connect 173 0 46 0;
#X connect 173 1 206 0;
#X connect 174 0 69 0;
#X connect 174 1 202 0;
#X connect 175 0 98 0;
#X connect 175 1 196 0;
#X connect 176 0 134 0;
#X connect 176 1 198 0;
#X connect 177 0 150 0;
#X connect 178 0 177 0;
#X connect 180 0 181 0;
#X connect 181 0 182 0;
#X connect 182 0 183 0;
#X connect 182 1 187 0;
#X connect 183 0 184 0;
#X connect 183 0 185 0;
#X connect 183 1 186 0;
#X connect 186 0 80 0;
#X connect 187 0 80 0;
#X connect 188 0 189 0;
#X connect 189 0 180 0;
#X connect 190 0 169 0;
#X connect 191 0 190 0;
#X connect 192 0 171 0;
#X connect 193 0 192 0;
#X connect 194 0 170 0;
#X connect 195 0 194 0;
#X connect 196 0 175 0;
#X connect 197 0 196 0;
#X connect 198 0 176 0;
#X connect 199 0 198 0;
#X connect 200 0 168 0;
#X connect 201 0 200 0;
#X connect 202 0 174 0;
#X connect 203 0 202 0;
#X connect 204 0 172 0;
#X connect 205 0 204 0;
#X connect 206 0 173 0;
#X connect 207 0 206 0;
#X connect 208 0 209 0;
#X connect 209 0 210 0;
#X connect 210 0 58 0;
#X connect 211 0 16 0;
#X connect 212 0 211 0;
#X connect 213 0 10 0;
#X connect 214 0 25 0;
#X connect 215 0 216 0;
#X connect 216 0 217 0;
#X connect 217 0 34 0;
#X connect 218 0 219 0;
#X connect 219 0 55 0;
#X connect 220 0 60 0;
#X connect 220 0 68 0;
#X connect 221 0 18 0;
#X connect 221 0 152 1;
#X connect 222 0 112 0;
#X connect 222 0 142 1;
#X restore 34 54 pd test 1;
#N canvas 0 22 450 300 dac 0;
#X obj 43 38 clone -s 1 fd_dacout 2 vol;
#X obj 43 62 env~;
#X obj 112 116 hsl 128 15 0 127 0 0 vol vol-set vol -2 -8 0 10 -204786
-1 -1 9700 1;
#X obj 43 86 - 100;
#X obj 109 140 vu 15 120 empty empty -1 -8 0 10 -66577 -1 1 0;
#X obj 161 139 tgl 15 0 dsp dsp-set dsp 17 7 0 10 -262144 -1 -1 1 1
;
#X obj 298 84 r dsp;
#X msg 298 108 \; pd dsp \$1;
#X connect 0 0 1 0;
#X connect 1 0 3 0;
#X connect 3 0 4 0;
#X connect 6 0 7 0;
#X coords 0 -1 1 1 153 173 2 100 100;
#X restore 262 66 pd dac;
